# Blender v2.93.7 OBJ File: ''
# www.blender.org
mtllib kescher.mtl
o Circle
v 0.000000 0.000000 -1.000000
v -0.195090 0.000000 -0.980785
v -0.382683 0.000000 -0.923880
v -0.555570 0.000000 -0.831470
v -0.707107 0.000000 -0.707107
v -0.831470 0.000000 -0.555570
v -0.923880 0.000000 -0.382683
v -0.980785 0.000000 -0.195090
v -1.000000 0.000000 0.000000
v -0.980785 0.000000 0.195090
v -0.923880 0.000000 0.382683
v -0.831470 0.000000 0.555570
v -0.707107 0.000000 0.707107
v -0.555570 0.000000 0.831470
v -0.382683 0.000000 0.923880
v -0.195090 0.000000 0.980785
v 0.000000 0.000000 1.000000
v 0.195090 0.000000 0.980785
v 0.382683 0.000000 0.923880
v 0.555570 0.000000 0.831470
v 0.707107 0.000000 0.707107
v 0.831469 0.000000 0.555570
v 0.923880 0.000000 0.382684
v 0.980785 0.000000 0.195090
v 1.000000 0.000000 -0.000000
v 0.980785 0.000000 -0.195090
v 0.923879 0.000000 -0.382684
v 0.831470 0.000000 -0.555570
v 0.707107 0.000000 -0.707107
v 0.555570 0.000000 -0.831470
v 0.382683 0.000000 -0.923880
v 0.195090 0.000000 -0.980785
v 0.348974 0.000000 -0.864608
v 0.129968 0.000000 -0.862104
v -0.093032 0.000000 -0.824055
v -0.311456 0.000000 -0.751922
v -0.516911 0.000000 -0.648478
v -0.701501 0.000000 -0.517698
v -0.858132 0.000000 -0.364608
v 0.493095 0.000000 -0.706398
v 0.261300 0.000000 -0.675729
v 0.020629 0.000000 -0.616278
v -0.219670 0.000000 -0.530330
v -0.450361 0.000000 -0.421188
v -0.662580 0.000000 -0.293046
v -0.848170 0.000000 -0.150828
v 0.620779 0.000000 -0.514976
v 0.386969 0.000000 -0.452813
v 0.139025 0.000000 -0.371470
v -0.113525 0.000000 -0.274072
v -0.360975 0.000000 -0.164363
v -0.593816 0.000000 -0.046559
v -0.803100 0.000000 0.074814
v 0.725887 0.000000 -0.300673
v 0.500000 0.000000 -0.207107
v 0.254898 0.000000 -0.105582
v -0.000000 0.000000 -0.000000
v -0.254898 0.000000 0.105582
v -0.500000 0.000000 0.207107
v -0.725888 0.000000 0.300672
v 0.803100 0.000000 -0.074814
v 0.593816 0.000000 0.046559
v 0.360975 0.000000 0.164363
v 0.113525 0.000000 0.274072
v -0.139025 0.000000 0.371470
v -0.386969 0.000000 0.452814
v -0.620779 0.000000 0.514977
v 0.848170 0.000000 0.150828
v 0.662580 0.000000 0.293046
v 0.450361 0.000000 0.421188
v 0.219670 0.000000 0.530330
v -0.020629 0.000000 0.616278
v -0.261300 0.000000 0.675729
v -0.493095 0.000000 0.706398
v 0.858132 0.000000 0.364608
v 0.701501 0.000000 0.517698
v 0.516911 0.000000 0.648478
v 0.311456 0.000000 0.751922
v 0.093032 0.000000 0.824055
v -0.129968 0.000000 0.862104
v -0.348974 0.000000 0.864608
v -0.195090 0.000000 2.083746
v 0.000000 0.000000 2.102960
v 0.195090 0.000000 2.083746
vt 0.000000 0.000000
vt 0.000000 0.000000
vt 0.000000 0.000000
vt 0.000000 0.000000
vt 0.000000 0.000000
vt 0.000000 0.000000
vt 0.000000 0.000000
vt 0.000000 0.000000
vt 0.000000 0.000000
vt 0.000000 0.000000
vt 0.000000 0.000000
vt 0.000000 0.000000
vt 0.000000 0.000000
vt 0.000000 0.000000
vt 0.000000 0.000000
vt 0.000000 0.000000
vt 0.000000 0.000000
vt 0.000000 0.000000
vt 0.000000 0.000000
vt 0.000000 0.000000
vt 0.000000 0.000000
vt 0.000000 0.000000
vt 0.000000 0.000000
vt 0.000000 0.000000
vt 0.000000 0.000000
vt 0.000000 0.000000
vt 0.000000 0.000000
vt 0.000000 0.000000
vt 0.000000 0.000000
vt 0.000000 0.000000
vt 0.000000 0.000000
vt 0.000000 0.000000
vt 0.000000 0.000000
vt 0.000000 0.000000
vt 0.000000 0.000000
vt 0.000000 0.000000
vt 0.000000 0.000000
vt 0.000000 0.000000
vt 0.000000 0.000000
vt 0.000000 0.000000
vt 0.000000 0.000000
vt 0.000000 0.000000
vt 0.000000 0.000000
vt 0.000000 0.000000
vt 0.000000 0.000000
vt 0.000000 0.000000
vt 0.000000 0.000000
vt 0.000000 0.000000
vt 0.000000 0.000000
vt 0.000000 0.000000
vt 0.000000 0.000000
vt 0.000000 0.000000
vt 0.000000 0.000000
vt 0.000000 0.000000
vt 0.000000 0.000000
vt 0.000000 0.000000
vt 0.000000 0.000000
vt 0.000000 0.000000
vt 0.000000 0.000000
vt 0.000000 0.000000
vt 0.000000 0.000000
vt 0.000000 0.000000
vt 0.000000 0.000000
vt 0.000000 0.000000
vt 0.000000 0.000000
vt 0.000000 0.000000
vt 0.000000 0.000000
vt 0.000000 0.000000
vt 0.000000 0.000000
vt 0.000000 0.000000
vt 0.000000 0.000000
vt 0.000000 0.000000
vt 0.000000 0.000000
vt 0.000000 0.000000
vt 0.000000 0.000000
vt 0.000000 0.000000
vt 0.000000 0.000000
vt 0.000000 0.000000
vt 0.000000 0.000000
vt 0.000000 0.000000
vt 0.000000 0.000000
vt 0.000000 0.000000
vt 0.000000 0.000000
vt 0.000000 0.000000
vn 0.0000 1.0000 0.0000
usemtl None
s off
f 32/1/1 33/2/1 30/3/1 31/4/1
f 33/2/1 40/5/1 29/6/1 30/3/1
f 40/5/1 47/7/1 28/8/1 29/6/1
f 47/7/1 54/9/1 27/10/1 28/8/1
f 54/9/1 61/11/1 26/12/1 27/10/1
f 61/11/1 68/13/1 25/14/1 26/12/1
f 68/13/1 75/15/1 24/16/1 25/14/1
f 75/15/1 22/17/1 23/18/1 24/16/1
f 1/19/1 34/20/1 33/2/1 32/1/1
f 34/20/1 41/21/1 40/5/1 33/2/1
f 41/21/1 48/22/1 47/7/1 40/5/1
f 48/22/1 55/23/1 54/9/1 47/7/1
f 55/23/1 62/24/1 61/11/1 54/9/1
f 62/24/1 69/25/1 68/13/1 61/11/1
f 69/25/1 76/26/1 75/15/1 68/13/1
f 76/26/1 21/27/1 22/17/1 75/15/1
f 2/28/1 35/29/1 34/20/1 1/19/1
f 35/29/1 42/30/1 41/21/1 34/20/1
f 42/30/1 49/31/1 48/22/1 41/21/1
f 49/31/1 56/32/1 55/23/1 48/22/1
f 56/32/1 63/33/1 62/24/1 55/23/1
f 63/33/1 70/34/1 69/25/1 62/24/1
f 70/34/1 77/35/1 76/26/1 69/25/1
f 77/35/1 20/36/1 21/27/1 76/26/1
f 3/37/1 36/38/1 35/29/1 2/28/1
f 36/38/1 43/39/1 42/30/1 35/29/1
f 43/39/1 50/40/1 49/31/1 42/30/1
f 50/40/1 57/41/1 56/32/1 49/31/1
f 57/41/1 64/42/1 63/33/1 56/32/1
f 64/42/1 71/43/1 70/34/1 63/33/1
f 71/43/1 78/44/1 77/35/1 70/34/1
f 78/44/1 19/45/1 20/36/1 77/35/1
f 4/46/1 37/47/1 36/38/1 3/37/1
f 37/47/1 44/48/1 43/39/1 36/38/1
f 44/48/1 51/49/1 50/40/1 43/39/1
f 51/49/1 58/50/1 57/41/1 50/40/1
f 58/50/1 65/51/1 64/42/1 57/41/1
f 65/51/1 72/52/1 71/43/1 64/42/1
f 72/52/1 79/53/1 78/44/1 71/43/1
f 79/53/1 18/54/1 19/45/1 78/44/1
f 5/55/1 38/56/1 37/47/1 4/46/1
f 38/56/1 45/57/1 44/48/1 37/47/1
f 45/57/1 52/58/1 51/49/1 44/48/1
f 52/58/1 59/59/1 58/50/1 51/49/1
f 59/59/1 66/60/1 65/51/1 58/50/1
f 66/60/1 73/61/1 72/52/1 65/51/1
f 73/61/1 80/62/1 79/53/1 72/52/1
f 80/62/1 17/63/1 18/54/1 79/53/1
f 6/64/1 39/65/1 38/56/1 5/55/1
f 39/65/1 46/66/1 45/57/1 38/56/1
f 46/66/1 53/67/1 52/58/1 45/57/1
f 53/67/1 60/68/1 59/59/1 52/58/1
f 60/68/1 67/69/1 66/60/1 59/59/1
f 67/69/1 74/70/1 73/61/1 66/60/1
f 74/70/1 81/71/1 80/62/1 73/61/1
f 81/71/1 16/72/1 17/63/1 80/62/1
f 7/73/1 8/74/1 39/65/1 6/64/1
f 8/74/1 9/75/1 46/66/1 39/65/1
f 9/75/1 10/76/1 53/67/1 46/66/1
f 10/76/1 11/77/1 60/68/1 53/67/1
f 11/77/1 12/78/1 67/69/1 60/68/1
f 12/78/1 13/79/1 74/70/1 67/69/1
f 13/79/1 14/80/1 81/71/1 74/70/1
f 14/80/1 15/81/1 16/72/1 81/71/1
f 17/63/1 16/72/1 82/82/1 83/83/1 84/84/1 18/54/1
l 17 83
